<svg xmlns="http://www.w3.org/2000/svg" width="43" height="43" fill="none" viewBox="0 0 43 43"><path stroke="#000" stroke-linecap="round" stroke-linejoin="round" stroke-width="2" d="M35.833 12.5417H7.16634C5.18732 12.5417 3.58301 14.146 3.58301 16.125V34.0417C3.58301 36.0207 5.18732 37.625 7.16634 37.625H35.833C37.812 37.625 39.4163 36.0207 39.4163 34.0417V16.125C39.4163 14.146 37.812 12.5417 35.833 12.5417Z"/><path stroke="#000" stroke-linecap="round" stroke-linejoin="round" stroke-width="2" d="M28.6663 37.625V8.95833C28.6663 8.00797 28.2888 7.09654 27.6168 6.42453C26.9448 5.75253 26.0334 5.375 25.083 5.375H17.9163C16.966 5.375 16.0545 5.75253 15.3825 6.42453C14.7105 7.09654 14.333 8.00797 14.333 8.95833V37.625"/></svg>