<svg width="25" height="24" viewBox="0 0 25 24" fill="none" xmlns="http://www.w3.org/2000/svg">
<path d="M20.75 6.75H4.25C3.83579 6.75 3.5 7.08579 3.5 7.5V19.5C3.5 19.9142 3.83579 20.25 4.25 20.25H20.75C21.1642 20.25 21.5 19.9142 21.5 19.5V7.5C21.5 7.08579 21.1642 6.75 20.75 6.75Z" stroke="black" stroke-linecap="round" stroke-linejoin="round"/>
<path d="M16.25 6.75V5.25C16.25 4.85218 16.092 4.47064 15.8107 4.18934C15.5294 3.90804 15.1478 3.75 14.75 3.75H10.25C9.85218 3.75 9.47064 3.90804 9.18934 4.18934C8.90804 4.47064 8.75 4.85218 8.75 5.25V6.75" stroke="black" stroke-linecap="round" stroke-linejoin="round"/>
<path d="M21.5001 11.8414C18.7648 13.424 15.6595 14.2549 12.4994 14.2499C9.33977 14.2549 6.23503 13.4243 3.5 11.8422" stroke="black" stroke-linecap="round" stroke-linejoin="round"/>
<path d="M11.375 11.25H13.625" stroke="black" stroke-linecap="round" stroke-linejoin="round"/>
</svg>
