<svg xmlns="http://www.w3.org/2000/svg" width="25" height="25" fill="none" viewBox="0 0 25 25"><path stroke="#A1A1AA" stroke-linecap="round" stroke-linejoin="round" stroke-width="2" d="M20.5 7.5H4.5C3.39543 7.5 2.5 8.39543 2.5 9.5V19.5C2.5 20.6046 3.39543 21.5 4.5 21.5H20.5C21.6046 21.5 22.5 20.6046 22.5 19.5V9.5C22.5 8.39543 21.6046 7.5 20.5 7.5Z"/><path stroke="#A1A1AA" stroke-linecap="round" stroke-linejoin="round" stroke-width="2" d="M16.5 21.5V5.5C16.5 4.96957 16.2893 4.46086 15.9142 4.08579C15.5391 3.71071 15.0304 3.5 14.5 3.5H10.5C9.96957 3.5 9.46086 3.71071 9.08579 4.08579C8.71071 4.46086 8.5 4.96957 8.5 5.5V21.5"/></svg>