<svg width="25" height="24" viewBox="0 0 25 24" fill="none" xmlns="http://www.w3.org/2000/svg">
<path d="M22.5 0H2.5C1.96975 0.000606423 1.4614 0.211515 1.08646 0.586456C0.711515 0.961398 0.500606 1.46975 0.5 2V22C0.500606 22.5302 0.711515 23.0386 1.08646 23.4135C1.4614 23.7885 1.96975 23.9994 2.5 24H22.5C23.0302 23.9994 23.5386 23.7885 23.9135 23.4135C24.2885 23.0386 24.4994 22.5302 24.5 22V2C24.4994 1.46975 24.2885 0.961398 23.9135 0.586456C23.5386 0.211515 23.0302 0.000606423 22.5 0ZM8.5 18.0001C8.5 18.2653 8.39464 18.5197 8.20711 18.7072C8.01957 18.8948 7.76522 19.0001 7.5 19.0001C7.23478 19.0001 6.98043 18.8948 6.79289 18.7072C6.60536 18.5197 6.5 18.2653 6.5 18.0001V10.0001C6.5 9.7349 6.60536 9.48055 6.79289 9.29301C6.98043 9.10547 7.23478 9.00012 7.5 9.00012C7.76522 9.00012 8.01957 9.10547 8.20711 9.29301C8.39464 9.48055 8.5 9.7349 8.5 10.0001V18.0001ZM7.5 7.50012C7.20333 7.50012 6.91332 7.41214 6.66665 7.24732C6.41997 7.0825 6.22771 6.84823 6.11418 6.57414C6.00065 6.30005 5.97094 5.99845 6.02882 5.70748C6.0867 5.41651 6.22956 5.14924 6.43934 4.93946C6.64912 4.72968 6.91639 4.58682 7.20736 4.52894C7.49834 4.47106 7.79994 4.50077 8.07403 4.6143C8.34811 4.72783 8.58238 4.92009 8.7472 5.16676C8.91203 5.41344 9 5.70345 9 6.00012C9 6.39794 8.84196 6.77947 8.56066 7.06078C8.27936 7.34208 7.89782 7.50012 7.5 7.50012ZM19.5 18.0001C19.5 18.2653 19.3946 18.5197 19.2071 18.7072C19.0196 18.8948 18.7652 19.0001 18.5 19.0001C18.2348 19.0001 17.9804 18.8948 17.7929 18.7072C17.6054 18.5197 17.5 18.2653 17.5 18.0001V13.5001C17.5 12.8371 17.2366 12.2012 16.7678 11.7324C16.2989 11.2635 15.663 11.0001 15 11.0001C14.337 11.0001 13.7011 11.2635 13.2322 11.7324C12.7634 12.2012 12.5 12.8371 12.5 13.5001V18.0001C12.5 18.2653 12.3946 18.5197 12.2071 18.7072C12.0196 18.8948 11.7652 19.0001 11.5 19.0001C11.2348 19.0001 10.9804 18.8948 10.7929 18.7072C10.6054 18.5197 10.5 18.2653 10.5 18.0001V10.0001C10.4999 9.7543 10.5904 9.51707 10.7542 9.33376C10.918 9.15044 11.1435 9.0339 11.3878 9.00639C11.6321 8.97889 11.8779 9.04235 12.0784 9.18465C12.2788 9.32695 12.4198 9.53812 12.4744 9.7778C13.1506 9.31822 13.9394 9.05169 14.7559 9.00688C15.5723 8.96206 16.3855 9.14066 17.108 9.52347C17.8305 9.90627 18.435 10.4788 18.8565 11.1795C19.2779 11.8801 19.5004 12.6825 19.5 13.5001V18.0001Z" fill="white"/>
</svg>
