<svg xmlns="http://www.w3.org/2000/svg" width="66" height="66" fill="none" viewBox="0 0 66 66"><path fill="#fff" d="M33 0.5C26.5721 0.5 20.2886 2.40609 14.944 5.97724C9.59938 9.54838 5.43378 14.6242 2.97393 20.5628C0.514082 26.5014 -0.129527 33.0361 1.12449 39.3404C2.37851 45.6448 5.47384 51.4358 10.019 55.981C14.5643 60.5262 20.3552 63.6215 26.6596 64.8755C32.964 66.1295 39.4986 65.4859 45.4372 63.0261C51.3758 60.5662 56.4516 56.4006 60.0228 51.056C63.5939 45.7114 65.5 39.4279 65.5 33C65.4901 24.3835 62.0628 16.1228 55.97 10.03C49.8772 3.93725 41.6165 0.509959 33 0.5ZM44.3867 35.0801L29.3867 45.0801C29.0103 45.3315 28.5727 45.476 28.1206 45.498C27.6685 45.5201 27.2188 45.4189 26.8197 45.2053C26.4206 44.9917 26.0871 44.6738 25.8546 44.2853C25.6222 43.8969 25.4996 43.4527 25.5 43V23C25.4996 22.5473 25.6222 22.1031 25.8546 21.7147C26.0871 21.3262 26.4206 21.0083 26.8197 20.7947C27.2188 20.5811 27.6685 20.4799 28.1206 20.502C28.5727 20.524 29.0103 20.6685 29.3867 20.9199L44.3867 30.9199C44.7292 31.1482 45.01 31.4575 45.2042 31.8204C45.3984 32.1832 45.5 32.5884 45.5 33C45.5 33.4116 45.3984 33.8168 45.2042 34.1796C45.01 34.5425 44.7292 34.8518 44.3867 35.0801Z"/></svg>