<svg xmlns="http://www.w3.org/2000/svg" width="45" height="45" fill="none" viewBox="0 0 45 45"><path stroke="#A1A1AA" stroke-linecap="round" stroke-linejoin="round" stroke-width="2" d="M30 30L22.5 22.5L15 30"/><path stroke="#A1A1AA" stroke-linecap="round" stroke-linejoin="round" stroke-width="2" d="M22.5 22.5V39.375"/><path stroke="#A1A1AA" stroke-linecap="round" stroke-linejoin="round" stroke-width="2" d="M38.2315 34.4813C40.0602 33.4843 41.5049 31.9067 42.3375 29.9975C43.1701 28.0882 43.3431 25.9561 42.8294 23.9376C42.3156 21.9191 41.1443 20.1291 39.5002 18.8502C37.8562 17.5714 35.8331 16.8764 33.7502 16.875H31.3877C30.8202 14.6799 29.7624 12.6419 28.2939 10.9144C26.8254 9.18688 24.9843 7.81475 22.9092 6.90117C20.834 5.98759 18.5788 5.55633 16.3129 5.63981C14.0471 5.72329 11.8297 6.31934 9.82744 7.38315C7.82514 8.44696 6.09006 9.95085 4.75265 11.7817C3.41523 13.6126 2.51027 15.7229 2.10582 17.9539C1.70136 20.1849 1.80793 22.4785 2.41751 24.6624C3.02708 26.8463 4.12381 28.8635 5.62523 30.5625"/><path stroke="#A1A1AA" stroke-linecap="round" stroke-linejoin="round" stroke-width="2" d="M30 30L22.5 22.5L15 30"/></svg>