<svg width="16" height="16" viewBox="0 0 16 16" fill="none" xmlns="http://www.w3.org/2000/svg">
<path d="M14.1164 6.42596C13.8806 6.18011 13.6368 5.92596 13.5447 5.70325C13.4601 5.49866 13.455 5.15979 13.45 4.83203C13.4408 4.22211 13.4304 3.53082 12.9498 3.05023C12.4692 2.56964 11.7779 2.5592 11.168 2.54999C10.8402 2.54504 10.5013 2.53992 10.2968 2.45526C10.0741 2.36316 9.81989 2.11939 9.57404 1.88361C9.14221 1.46942 8.65265 1 8 1C7.34735 1 6.85785 1.46942 6.42596 1.88361C6.18011 2.11939 5.92596 2.36316 5.70325 2.45526C5.49866 2.53992 5.15979 2.54504 4.83203 2.54999C4.22211 2.5592 3.53082 2.56964 3.05023 3.05023C2.56964 3.53082 2.5592 4.22211 2.54999 4.83203C2.54504 5.15979 2.53992 5.49866 2.45526 5.70325C2.36316 5.9259 2.11939 6.18011 1.88361 6.42596C1.46942 6.85779 1 7.34735 1 8C1 8.65265 1.46942 9.14215 1.88361 9.57404C2.11939 9.81989 2.36316 10.074 2.45526 10.2968C2.53992 10.5013 2.54504 10.8402 2.54999 11.168C2.5592 11.7779 2.56964 12.4692 3.05023 12.9498C3.53082 13.4304 4.22211 13.4408 4.83203 13.45C5.15979 13.455 5.49866 13.4601 5.70325 13.5447C5.9259 13.6368 6.18011 13.8806 6.42596 14.1164C6.85779 14.5306 7.34735 15 8 15C8.65265 15 9.14215 14.5306 9.57404 14.1164C9.81989 13.8806 10.074 13.6368 10.2968 13.5447C10.5013 13.4601 10.8402 13.455 11.168 13.45C11.7779 13.4408 12.4692 13.4304 12.9498 12.9498C13.4304 12.4692 13.4408 11.7779 13.45 11.168C13.455 10.8402 13.4601 10.5013 13.5447 10.2968C13.6368 10.0741 13.8806 9.81989 14.1164 9.57404C14.5306 9.14221 15 8.65265 15 8C15 7.34735 14.5306 6.85785 14.1164 6.42596ZM11.0952 6.86169L7.42853 10.3617C7.33552 10.4505 7.21189 10.5 7.08331 10.5C6.95474 10.5 6.83111 10.4505 6.7381 10.3617L4.90479 8.61169C4.85726 8.56637 4.81913 8.51212 4.79257 8.45205C4.76602 8.39199 4.75155 8.32728 4.75001 8.26162C4.74847 8.19596 4.75988 8.13064 4.78358 8.06939C4.80729 8.00815 4.84283 7.95217 4.88817 7.90466C4.93352 7.85715 4.98778 7.81904 5.04786 7.7925C5.10793 7.76597 5.17265 7.75153 5.23831 7.75001C5.30397 7.74849 5.36928 7.75992 5.43052 7.78365C5.49176 7.80738 5.54772 7.84294 5.59521 7.88831L7.08331 9.30878L10.4048 6.13831C10.4523 6.09294 10.5082 6.05738 10.5695 6.03365C10.6307 6.00992 10.696 5.99849 10.7617 6.00001C10.8274 6.00153 10.8921 6.01597 10.9521 6.0425C11.0122 6.06904 11.0665 6.10715 11.1118 6.15466C11.1572 6.20217 11.1927 6.25815 11.2164 6.31939C11.2401 6.38064 11.2515 6.44596 11.25 6.51162C11.2484 6.57728 11.234 6.64199 11.2074 6.70205C11.1809 6.76212 11.1427 6.81637 11.0952 6.86169Z" fill="#22C55E"/>
</svg>
