<svg width="48" height="48" viewBox="0 0 48 48" fill="none" xmlns="http://www.w3.org/2000/svg">
<path d="M24 0.4375C19.3398 0.4375 14.7842 1.81942 10.9094 4.4085C7.03455 6.99758 4.01449 10.6775 2.2311 14.983C0.447709 19.2885 -0.0189068 24.0261 0.890257 28.5968C1.79942 33.1675 4.04353 37.3659 7.33881 40.6612C10.6341 43.9565 14.8325 46.2006 19.4032 47.1098C23.9739 48.0189 28.7115 47.5523 33.017 45.7689C37.3225 43.9855 41.0024 40.9655 43.5915 37.0906C46.1806 33.2158 47.5625 28.6602 47.5625 24C47.5553 17.7531 45.0705 11.764 40.6532 7.34677C36.236 2.92951 30.247 0.44472 24 0.4375ZM35.2219 19.8741L21.9291 32.5616C21.5911 32.8832 21.1424 33.0625 20.6759 33.0625C20.2094 33.0625 19.7607 32.8832 19.4227 32.5616L12.7781 26.2178C12.4309 25.8853 12.23 25.4286 12.2193 24.948C12.2087 24.4674 12.3893 24.0022 12.7213 23.6547C13.0534 23.3071 13.5099 23.1056 13.9905 23.0943C14.4711 23.0831 14.9364 23.263 15.2844 23.5947L20.6759 28.7437L32.7156 17.2509C33.0636 16.9193 33.529 16.7393 34.0096 16.7506C34.4901 16.7618 34.9466 16.9634 35.2787 17.3109C35.6108 17.6585 35.7913 18.1236 35.7807 18.6042C35.77 19.0848 35.5691 19.5416 35.2219 19.8741Z" fill="#EAB308"/>
</svg>
