<svg width="25" height="24" viewBox="0 0 25 24" fill="none" xmlns="http://www.w3.org/2000/svg">
<path d="M12.0176 0C8.9104 5.67276e-05 5.92399 1.20357 3.68501 3.35802C1.44603 5.51246 0.128508 8.45036 0.00891371 11.5553C-0.11068 14.6601 0.976944 17.6907 3.04357 20.011C5.1102 22.3313 7.99518 23.7609 11.0932 24V14.791H8.31988C8.0747 14.791 7.83957 14.6936 7.66621 14.5202C7.49284 14.3469 7.39545 14.1117 7.39545 13.8666C7.39545 13.6214 7.49284 13.3863 7.66621 13.2129C7.83957 13.0395 8.0747 12.9421 8.31988 12.9421H11.0932V10.1688C11.0943 9.1885 11.4842 8.24862 12.1774 7.5554C12.8707 6.86219 13.8105 6.47225 14.7909 6.47113H16.6398C16.8849 6.47113 17.1201 6.56852 17.2934 6.74189C17.4668 6.91525 17.5642 7.15038 17.5642 7.39556C17.5642 7.64073 17.4668 7.87586 17.2934 8.04923C17.1201 8.22259 16.8849 8.31999 16.6398 8.31999H14.7909C14.3007 8.32055 13.8308 8.51552 13.4842 8.86213C13.1376 9.20873 12.9426 9.67867 12.942 10.1688V12.9421H15.7153C15.9605 12.9421 16.1956 13.0395 16.369 13.2129C16.5424 13.3863 16.6398 13.6214 16.6398 13.8666C16.6398 14.1117 16.5424 14.3469 16.369 14.5202C16.1956 14.6936 15.9605 14.791 15.7153 14.791H12.942V24C16.04 23.7609 18.925 22.3312 20.9916 20.011C23.0582 17.6907 24.1458 14.6601 24.0262 11.5553C23.9066 8.45037 22.5891 5.51247 20.3502 3.35803C18.1112 1.20359 15.1248 6.83388e-05 12.0176 0Z" fill="#F4F4F5"/>
</svg>
