<svg xmlns="http://www.w3.org/2000/svg" width="142" height="34" fill="none" viewBox="0 0 142 34"><rect width="142" height="34" fill="#FCD34D"/><path fill="#000" d="M20.5557 20.2083L18.9857 17.9583C19.8957 17.5683 20.4257 16.7983 20.4257 15.7483C20.4257 14.1783 19.2557 13.2083 17.3857 13.2083H14.3557V20.2083H15.9757V18.2583H17.3857H17.4657L18.8157 20.2083H20.5557ZM18.7857 15.7483C18.7857 16.5083 18.2857 16.9683 17.2957 16.9683H15.9757V14.5283H17.2957C18.2857 14.5283 18.7857 14.9783 18.7857 15.7483ZM24.8193 18.9083V17.2883H28.0693V16.0283H24.8193V14.5083H28.4993V13.2083H23.2093V20.2083H28.6293V18.9083H24.8193ZM34.7487 20.3283C35.9687 20.3283 36.9787 19.8883 37.6387 19.0783L36.5987 18.1183C36.1287 18.6683 35.5387 18.9483 34.8387 18.9483C33.5287 18.9483 32.5987 18.0283 32.5987 16.7083C32.5987 15.3883 33.5287 14.4683 34.8387 14.4683C35.5387 14.4683 36.1287 14.7483 36.5987 15.2883L37.6387 14.3283C36.9787 13.5283 35.9687 13.0883 34.7587 13.0883C32.5787 13.0883 30.9587 14.5983 30.9587 16.7083C30.9587 18.8183 32.5787 20.3283 34.7487 20.3283ZM46.4327 20.2083L44.8627 17.9583C45.7727 17.5683 46.3027 16.7983 46.3027 15.7483C46.3027 14.1783 45.1327 13.2083 43.2627 13.2083H40.2327V20.2083H41.8527V18.2583H43.2627H43.3427L44.6927 20.2083H46.4327ZM44.6627 15.7483C44.6627 16.5083 44.1627 16.9683 43.1727 16.9683H41.8527V14.5283H43.1727C44.1627 14.5283 44.6627 14.9783 44.6627 15.7483ZM52.1962 20.3283C54.1862 20.3283 55.3662 19.1883 55.3662 17.1283V13.2083H53.7662V17.0683C53.7662 18.3983 53.1962 18.9483 52.2062 18.9483C51.2262 18.9483 50.6462 18.3983 50.6462 17.0683V13.2083H49.0262V17.1283C49.0262 19.1883 50.2062 20.3283 52.1962 20.3283ZM58.4671 20.2083H60.0871V13.2083H58.4671V20.2083ZM64.6983 20.2083H66.3183V14.5283H68.5583V13.2083H62.4583V14.5283H64.6983V20.2083ZM76.0601 17.4183H74.9201V16.1083H73.3901V17.4183H71.5101L74.5701 13.2083H72.8701L69.5701 17.6483V18.7383H73.3401V20.2083H74.9201V18.7383H76.0601V17.4183ZM83.7146 20.2083H85.4146L82.2846 13.2083H80.6846L77.5646 20.2083H79.2246L79.8446 18.7083H83.0946L83.7146 20.2083ZM80.3646 17.4783L81.4746 14.7983L82.5846 17.4783H80.3646ZM92.9309 14.5083V13.2083H87.6409V20.2083H89.2609V17.6583H92.5009V16.3583H89.2609V14.5083H92.9309ZM101.728 20.2083L100.158 17.9583C101.068 17.5683 101.598 16.7983 101.598 15.7483C101.598 14.1783 100.428 13.2083 98.5576 13.2083H95.5276V20.2083H97.1476V18.2583H98.5576H98.6376L99.9876 20.2083H101.728ZM99.9576 15.7483C99.9576 16.5083 99.4576 16.9683 98.4676 16.9683H97.1476V14.5283H98.4676C99.4576 14.5283 99.9576 14.9783 99.9576 15.7483ZM104.381 20.2083H106.001V13.2083H104.381V20.2083ZM112.512 20.3283C113.732 20.3283 114.742 19.8883 115.402 19.0783L114.362 18.1183C113.892 18.6683 113.302 18.9483 112.602 18.9483C111.292 18.9483 110.362 18.0283 110.362 16.7083C110.362 15.3883 111.292 14.4683 112.602 14.4683C113.302 14.4683 113.892 14.7483 114.362 15.2883L115.402 14.3283C114.742 13.5283 113.732 13.0883 112.522 13.0883C110.342 13.0883 108.722 14.5983 108.722 16.7083C108.722 18.8183 110.342 20.3283 112.512 20.3283ZM123.09 20.2083H124.79L121.66 13.2083H120.06L116.94 20.2083H118.6L119.22 18.7083H122.47L123.09 20.2083ZM119.74 17.4783L120.85 14.7983L121.96 17.4783H119.74ZM127.818 20.2883C128.358 20.2883 128.788 19.8783 128.788 19.3083C128.788 18.7283 128.358 18.3483 127.818 18.3483C127.278 18.3483 126.848 18.7283 126.848 19.3083C126.848 19.8783 127.278 20.2883 127.818 20.2883Z"/></svg>