<svg xmlns="http://www.w3.org/2000/svg" width="22" height="21" fill="none" viewBox="0 0 22 21"><path fill="#EAB308" d="M21.4216 8.13233C21.328 7.83834 21.1479 7.57941 20.9049 7.38931C20.6619 7.1992 20.3672 7.08676 20.0593 7.06665L14.4915 6.677L12.426 1.47607C12.3143 1.18854 12.1182 0.941482 11.8636 0.767267C11.6091 0.593052 11.3078 0.499808 10.9993 0.499756H10.9978C10.6898 0.500305 10.3891 0.593786 10.1351 0.767975C9.88106 0.942164 9.6855 1.18895 9.57399 1.47607L7.4778 6.70703L1.94069 7.06665C1.63281 7.08676 1.33814 7.1992 1.09512 7.3893C0.852103 7.57941 0.672026 7.83834 0.578386 8.13233C0.479601 8.43048 0.47288 8.75148 0.5591 9.05351C0.64532 9.35554 0.820485 9.62461 1.06178 9.82569L5.32155 13.4263L4.05446 18.4104C3.96712 18.7461 3.98318 19.1004 4.10054 19.4269C4.21789 19.7533 4.43107 20.0367 4.71217 20.24C4.98357 20.4374 5.30811 20.5486 5.64357 20.5591C5.97903 20.5695 6.30987 20.4788 6.59303 20.2986L10.9876 17.5147C10.9934 17.5103 10.9993 17.5073 11.0125 17.5147L15.741 20.5103C15.9977 20.6743 16.2979 20.757 16.6024 20.7476C16.9069 20.7382 17.2014 20.6371 17.4475 20.4575C17.7022 20.2734 17.8954 20.0167 18.0018 19.7209C18.1082 19.4252 18.1228 19.1042 18.0437 18.8001L16.6975 13.3552L20.9382 9.82569C21.1795 9.62461 21.3547 9.35554 21.4409 9.05351C21.5271 8.75148 21.5204 8.43048 21.4216 8.13233Z"/></svg>